<svg width="24" height="24" viewBox="2 2 20 20" fill="none" xmlns="http://www.w3.org/2000/svg">
  <path fill-rule="evenodd" clip-rule="evenodd" d="M6 17V7C6 6.44772 6.44772 6 7 6H17C17.5523 6 18 6.44772 18 7V17C18 17.5523 17.5523 18 17 18H7C6.44772 18 6 17.5523 6 17ZM4 7V17C4 18.6569 5.34315 20 7 20H17C18.6569 20 20 18.6569 20 17V7C20 5.34315 18.6569 4 17 4H7C5.34315 4 4 5.34315 4 7ZM8 9C8 8.44772 8.44772 8 9 8H15C15.5523 8 16 8.44772 16 9C16 9.55228 15.5523 10 15 10H9C8.44772 10 8 9.55228 8 9ZM8 14C8 13.4477 8.44772 13 9 13H13C13.5523 13 14 13.4477 14 14C14 14.5523 13.5523 15 13 15H9C8.44772 15 8 14.5523 8 14Z" fill="currentColor"/>
</svg>
