<svg width="24" height="24" viewBox="0 0 24 24" fill="currentColor" xmlns="http://www.w3.org/2000/svg">
<path fill-rule="evenodd" clip-rule="evenodd" d="M6 2C6 1.44772 6.44772 1 7 1C7.55228 1 8 1.44772 8 2V4.00015L16 4.00157V2C16 1.44772 16.4477 1 17 1C17.5523 1 18 1.44772 18 2V4.03061C19.0656 4.09802 19.7354 4.2835 20.4253 4.65245C21.2514 5.09427 21.9057 5.74859 22.3475 6.57471C22.8318 7.48019 23 8.35117 23 10.1278V16.8722C23 18.6488 22.8318 19.5198 22.3475 20.4253C21.9057 21.2514 21.2514 21.9057 20.4253 22.3475C19.5198 22.8318 18.6488 23 16.8722 23H7.12777C5.35117 23 4.48019 22.8318 3.57471 22.3475C2.74859 21.9057 2.09427 21.2514 1.65245 20.4253C1.16819 19.5198 1 18.6488 1 16.8722L1.00178 9.82346C1.02088 8.24858 1.19668 7.42693 1.65245 6.57471C2.09427 5.74859 2.74859 5.09427 3.57471 4.65245C4.26458 4.2835 4.93442 4.09802 6 4.03061V2ZM16 6.0001V7C16 7.55228 16.4477 8 17 8C17.5523 8 18 7.55228 18 7V6.03331C18.6923 6.08532 19.0831 6.20271 19.4821 6.41608C19.9597 6.67149 20.3285 7.04032 20.5839 7.51791C20.8014 7.92459 20.9192 8.32276 20.9696 9.04048L20.9894 9.42748C20.9918 9.49692 20.9938 9.56897 20.9954 9.6438L21 10.1278V16.8722L20.9954 17.3562C20.9938 17.431 20.9918 17.5031 20.9894 17.5725L20.9696 17.9595C20.9192 18.6772 20.8014 19.0754 20.5839 19.4821C20.3285 19.9597 19.9597 20.3285 19.4821 20.5839C19.0754 20.8014 18.6772 20.9192 17.9595 20.9696L17.5725 20.9894C17.5031 20.9918 17.431 20.9938 17.3562 20.9954L16.8722 21H7.12777L6.6438 20.9954C6.56897 20.9938 6.49692 20.9918 6.42748 20.9894L6.04048 20.9696C5.32276 20.9192 4.92459 20.8014 4.51791 20.5839C4.04032 20.3285 3.67149 19.9597 3.41608 19.4821C3.19858 19.0754 3.08082 18.6772 3.03036 17.9595L3.01059 17.5725C3.00818 17.5031 3.0062 17.431 3.00463 17.3562L3 16.8722V10.1278C3 9.86753 3.00336 9.63581 3.01059 9.42748L3.03036 9.04048C3.08082 8.32276 3.19858 7.92459 3.41608 7.51791C3.67149 7.04032 4.04032 6.67149 4.51791 6.41608C4.91688 6.20271 5.30766 6.08532 6 6.03331V7C6 7.55228 6.44772 8 7 8C7.55228 8 8 7.55228 8 7V6.00101L16 6.0001ZM6 13C6 12.4477 6.44772 12 7 12C7.55228 12 8 12.4477 8 13C8 13.5523 7.55228 14 7 14C6.44772 14 6 13.5523 6 13ZM7 16C6.44772 16 6 16.4477 6 17C6 17.5523 6.44772 18 7 18C7.55228 18 8 17.5523 8 17C8 16.4477 7.55228 16 7 16ZM11 13C11 12.4477 11.4477 12 12 12C12.5523 12 13 12.4477 13 13C13 13.5523 12.5523 14 12 14C11.4477 14 11 13.5523 11 13ZM12 16C11.4477 16 11 16.4477 11 17C11 17.5523 11.4477 18 12 18C12.5523 18 13 17.5523 13 17C13 16.4477 12.5523 16 12 16ZM16 13C16 12.4477 16.4477 12 17 12C17.5523 12 18 12.4477 18 13C18 13.5523 17.5523 14 17 14C16.4477 14 16 13.5523 16 13ZM17 16C16.4477 16 16 16.4477 16 17C16 17.5523 16.4477 18 17 18C17.5523 18 18 17.5523 18 17C18 16.4477 17.5523 16 17 16Z" />
</svg>
