<svg width="24" height="24" viewBox="0 0 24 24" xmlns="http://www.w3.org/2000/svg">
  <path fill-rule="evenodd" clip-rule="evenodd" d="M12.1193 21.9936C12.6151 21.9385 13 21.5358 13 21.0471C13 20.5208 12.5537 20 12.0031 20H4.99085L4.87458 19.9936C4.37876 19.9385 3.9939 19.6299 3.9939 19.1412V4.85878L4.00061 4.74765C4.0582 4.27372 4.47958 4 4.99085 4H12.0031L12.1193 3.99359C12.6151 3.93854 13 3.44162 13 2.95293C13 2.42664 12.5537 2 12.0031 2H4.99085L4.81511 2.00485C3.24511 2.0918 2 3.33631 2 4.85878V19.1412L2.00508 19.3092C2.09605 20.8099 3.39804 22 4.99085 22H12.0031L12.1193 21.9936ZM15.2565 17.5054L19.7617 13H9C8.44772 13 8 12.5523 8 12C8 11.4477 8.44772 11 9 11H19.7619L15.2565 6.49459C14.9144 6.15283 14.9144 5.5983 15.2565 5.25654C15.4275 5.08551 15.6516 5 15.8755 5C16.0993 5 16.3234 5.08551 16.4945 5.25654L21.9998 10.7621L23.2378 11.9999L21.9998 13.2379L16.4945 18.7435C16.1524 19.0855 15.5985 19.0855 15.2565 18.7435C14.9144 18.4017 14.9144 17.8472 15.2565 17.5054Z" />
</svg>
