<svg width="24" height="24" viewBox="2 2 20 20" fill="none" xmlns="http://www.w3.org/2000/svg">
<path fill-rule="evenodd" clip-rule="evenodd" d="M18 6V6.00477V6.01219V6.01962V6.02706V6.0345V6.04196V6.04942V6.05688V6.06436V6.07184V6.07933V6.08682V6.09433V6.10184V6.10936V6.11688V6.12441V6.13195V6.1395V6.14705V6.15461V6.16218V6.16976V6.17734V6.18492V6.19252V6.20012V6.20773V6.21534V6.22296V6.23059V6.23823V6.24587V6.25352V6.26117V6.26883V6.2765V6.28417V6.29185V6.29953V6.30723V6.31492V6.32263V6.33034V6.33805V6.34578V6.35351V6.36124V6.36898V6.37673V6.38448V6.39224V6.4V17.6C18 17.6378 17.9873 17.7148 17.881 17.8105C17.7714 17.9092 17.5833 18 17.3333 18H6.66667C6.4167 18 6.22864 17.9092 6.11898 17.8105C6.0127 17.7148 6 17.6378 6 17.6V6.4V6.39224V6.38448V6.37673V6.36898V6.36124V6.35351V6.34578V6.33805V6.33034V6.32263V6.31492V6.30723V6.29953V6.29185V6.28417V6.2765V6.26883V6.26117V6.25352V6.24587V6.23823V6.23059V6.22296V6.21534V6.20773V6.20012V6.19252V6.18492V6.17734V6.16976V6.16218V6.15461V6.14705V6.1395V6.13195V6.12441V6.11688V6.10936V6.10184V6.09433V6.08682V6.07933V6.07184V6.06436V6.05688V6.04942V6.04196V6.0345V6.02706V6.01962V6.01219V6.00477V6H18ZM20 4V6V6.4V17.6C20 18.9255 18.8061 20 17.3333 20H6.66667C5.19391 20 4 18.9255 4 17.6V6.4V6V4H20ZM16.5985 8.52859C16.2141 8.13058 15.5796 8.12033 15.1826 8.50573L10.4964 13.0549L8.9753 11.586C8.57802 11.2024 7.94495 11.2134 7.5613 11.6107C7.17765 12.008 7.1887 12.641 7.58598 13.0247L9.744 15.1087C9.95782 15.3151 10.2399 15.4073 10.5147 15.3864C10.7804 15.3983 11.0501 15.3048 11.256 15.1049L16.5757 9.94076C16.9712 9.55679 16.9814 8.92514 16.5985 8.52859Z" fill="currentColor"/>
</svg>
