<svg width="24" height="24" viewBox="0 0 24 24" xmlns="http://www.w3.org/2000/svg">
  <path fill-rule="evenodd" clip-rule="evenodd" d="M10 5.5C10 4.67157 10.6716 4 11.5 4H12.5C13.3284 4 14 4.67157 14 5.5C14 5.67532 13.9699 5.84361 13.9146 6H17C17.5523 6 18 6.44772 18 7C18 7.55228 17.5523 8 17 8H7C6.44772 8 6 7.55228 6 7C6 6.44772 6.44772 6 7 6H10.0854C10.0301 5.84361 10 5.67532 10 5.5ZM6.21799 11.092C6 11.5198 6 12.0799 6 13.2V16.8C6 17.9201 6 18.4802 6.21799 18.908C6.40973 19.2843 6.71569 19.5903 7.09202 19.782C7.51984 20 8.0799 20 9.2 20H14.8C15.9201 20 16.4802 20 16.908 19.782C17.2843 19.5903 17.5903 19.2843 17.782 18.908C18 18.4802 18 17.9201 18 16.8V13.2C18 12.0799 18 11.5198 17.782 11.092C17.5903 10.7157 17.2843 10.4097 16.908 10.218C16.4802 10 15.9201 10 14.8 10H9.2C8.0799 10 7.51984 10 7.09202 10.218C6.71569 10.4097 6.40973 10.7157 6.21799 11.092Z"/>
</svg>
